<svg width="20" height="22" viewBox="0 0 20 22" fill="none" xmlns="http://www.w3.org/2000/svg">
<g filter="url(#filter0_d_73_403)">
<path d="M13.125 19.1L4.7 10.7C4.6 10.6 4.529 10.4917 4.487 10.375C4.445 10.2584 4.42434 10.1334 4.425 10C4.425 9.86669 4.44567 9.74169 4.487 9.62502C4.52834 9.50836 4.59934 9.40002 4.7 9.30002L13.125 0.875024C13.3583 0.641691 13.65 0.525024 14 0.525024C14.35 0.525024 14.65 0.650024 14.9 0.900024C15.15 1.15002 15.275 1.44169 15.275 1.77502C15.275 2.10836 15.15 2.40002 14.9 2.65002L7.55 10L14.9 17.35C15.1333 17.5834 15.25 17.871 15.25 18.213C15.25 18.555 15.125 18.8507 14.875 19.1C14.625 19.35 14.3333 19.475 14 19.475C13.6667 19.475 13.375 19.35 13.125 19.1Z" fill="#58B96D"/>
</g>
<defs>
<filter id="filter0_d_73_403" x="0.424988" y="0.525024" width="18.85" height="26.95" filterUnits="userSpaceOnUse" color-interpolation-filters="sRGB">
<feFlood flood-opacity="0" result="BackgroundImageFix"/>
<feColorMatrix in="SourceAlpha" type="matrix" values="0 0 0 0 0 0 0 0 0 0 0 0 0 0 0 0 0 0 127 0" result="hardAlpha"/>
<feOffset dy="4"/>
<feGaussianBlur stdDeviation="2"/>
<feComposite in2="hardAlpha" operator="out"/>
<feColorMatrix type="matrix" values="0 0 0 0 0 0 0 0 0 0 0 0 0 0 0 0 0 0 0.25 0"/>
<feBlend mode="normal" in2="BackgroundImageFix" result="effect1_dropShadow_73_403"/>
<feBlend mode="normal" in="SourceGraphic" in2="effect1_dropShadow_73_403" result="shape"/>
</filter>
</defs>
</svg>
